<?xml version="1.0" encoding="iso-8859-1"?>
<!-- Generator: Adobe Illustrator 19.0.0, SVG Export Plug-In . SVG Version: 6.00 Build 0)  -->
<svg version="1.1" id="Layer_1" xmlns="http://www.w3.org/2000/svg" xmlns:xlink="http://www.w3.org/1999/xlink" x="0px" y="0px"
	 viewBox="0 0 512 512" style="enable-background:new 0 0 512 512;" xml:space="preserve">
<g>
	<g>
		<rect x="194.037" y="239.304" width="123.915" height="33.391"/>
	</g>
</g>
<g>
	<g>
		<path d="M512,256c0-24.17-19.122-33.853-30.545-39.639c-2.14-1.084-4.994-2.53-7.032-3.788c0.787-0.617,1.623-1.247,2.312-1.764
			c8.046-6.053,24.789-18.649,17.786-44.264c-6.659-24.323-26.759-27.914-37.555-29.843c-7.808-1.395-9.24-2.015-9.83-3.287
			c-0.027-0.06-0.05-0.111-0.068-0.155c0.454-1.552,2.973-5.037,4.666-7.381c6.251-8.651,19.26-26.652,4.014-48.427
			c-6.249-8.924-19.762-18.526-48.686-13.57c-44.663,7.652-114.277,49.696-138.192,110.562H243.13
			c-23.915-60.866-93.529-102.91-138.192-110.562c-28.921-4.954-42.437,4.645-48.687,13.571
			c-15.244,21.774-2.236,39.776,4.015,48.426c1.693,2.344,4.212,5.829,4.666,7.381c-0.018,0.043-0.039,0.094-0.067,0.154
			c-0.591,1.273-2.024,1.893-9.832,3.288c-10.797,1.929-30.896,5.52-37.557,29.85c-6.999,25.607,9.744,38.203,17.789,44.256
			c0.689,0.519,1.525,1.148,2.312,1.764c-2.038,1.258-4.893,2.704-7.032,3.788C19.122,222.146,0,231.83,0,256
			s19.121,33.853,30.545,39.64c2.14,1.084,4.995,2.529,7.032,3.787c-0.786,0.618-1.623,1.247-2.312,1.764
			c-8.046,6.053-24.789,18.649-17.786,44.265c6.659,24.323,26.759,27.914,37.556,29.843c7.807,1.395,9.239,2.015,9.829,3.285
			c0.027,0.06,0.05,0.112,0.068,0.157c-0.454,1.552-2.973,5.037-4.666,7.381c-6.251,8.651-19.26,26.652-4.014,48.426
			c5.069,7.239,14.92,14.924,33.894,14.924c4.418,0,9.331-0.416,14.791-1.352c44.663-7.652,114.277-49.696,138.192-110.563h25.739
			c23.915,60.867,93.529,102.911,138.192,110.563c28.927,4.954,42.437-4.646,48.687-13.571c15.244-21.774,2.236-39.776-4.015-48.426
			c-1.693-2.344-4.212-5.83-4.667-7.381c0.019-0.043,0.04-0.095,0.068-0.154c0.591-1.273,2.023-1.893,9.83-3.288
			c10.798-1.929,30.897-5.518,37.559-29.85c6.999-25.608-9.744-38.204-17.789-44.257c-0.689-0.519-1.526-1.148-2.312-1.764
			c2.037-1.258,4.893-2.704,7.032-3.787C492.879,289.853,512,280.168,512,256z M466.367,265.85
			c-9.698,4.912-24.354,12.335-26.791,29.23c-2.604,17.983,10.202,27.618,17.083,32.795c6.678,5.024,6.678,5.024,5.655,8.763
			c-0.965,3.526-1.09,3.98-11.222,5.79c-9.785,1.747-26.161,4.673-34.249,22.107c-8.563,18.462,1.696,32.66,7.826,41.143
			c1.693,2.344,4.504,6.233,4.808,7.75c-0.057,0.187-0.25,0.711-0.84,1.609c-2.096,1.103-12.483,3.012-33.948-4.783
			c-39.591-14.378-85.88-51.241-97.749-93.873l-3.401-12.219h-75.08l-3.401,12.219c-11.868,42.632-58.158,79.494-97.749,93.873
			c-21.465,7.794-31.851,5.887-33.948,4.783c-0.59-0.898-0.784-1.422-0.84-1.609c0.304-1.517,3.115-5.406,4.808-7.75
			c6.13-8.482,16.39-22.679,7.825-41.145c-8.087-17.431-24.464-20.357-34.248-22.104c-10.133-1.81-10.257-2.264-11.219-5.782
			c-1.025-3.747-1.025-3.747,5.653-8.771c6.881-5.176,19.688-14.811,17.085-32.786c-2.439-16.904-17.095-24.327-26.793-29.239
			c-10.634-5.387-12.24-7.023-12.24-9.852s1.606-4.464,12.241-9.85c9.698-4.912,24.354-12.335,26.791-29.229
			c2.604-17.983-10.202-27.618-17.083-32.795c-6.677-5.023-6.677-5.023-5.655-8.762c0.965-3.527,1.09-3.98,11.223-5.791
			c9.784-1.749,26.16-4.675,34.248-22.107c8.563-18.462-1.695-32.66-7.826-41.143c-1.693-2.344-4.504-6.234-4.808-7.751
			c0.057-0.187,0.249-0.711,0.84-1.609c2.097-1.105,12.491-3.011,33.95,4.784c39.591,14.379,85.879,51.241,97.746,93.871
			l3.401,12.219h75.08l3.401-12.219c11.867-42.63,58.155-79.491,97.746-93.871c21.459-7.794,31.853-5.889,33.95-4.784
			c0.591,0.898,0.784,1.421,0.84,1.609c-0.304,1.517-3.115,5.406-4.808,7.751c-6.131,8.482-16.39,22.68-7.825,41.145
			c8.087,17.43,24.464,20.356,34.247,22.105c10.133,1.81,10.258,2.264,11.222,5.783c1.023,3.745,1.023,3.745-5.654,8.769
			c-6.881,5.177-19.688,14.812-17.085,32.786c2.439,16.904,17.095,24.327,26.793,29.239c10.634,5.385,12.24,7.021,12.24,9.85
			S477.003,260.464,466.367,265.85z"/>
	</g>
</g>
<g>
</g>
<g>
</g>
<g>
</g>
<g>
</g>
<g>
</g>
<g>
</g>
<g>
</g>
<g>
</g>
<g>
</g>
<g>
</g>
<g>
</g>
<g>
</g>
<g>
</g>
<g>
</g>
<g>
</g>
</svg>
